{"title":"The Blacklist S01E15 HDTV x264 AAC E-Subs [GWC].mp4","uid":9696606,"size":121741353,"categoryP":"video","categoryS":"tv_shows","magnet":"?xt=urn:btih:657bc925c2ba517557f586d75f2f46a45ee3444f&amp;dn=The+Blacklist+S01E15+HDTV+x264+AAC+E-Subs+%5BGWC%5D.mp4&amp;tr=udp%3A%2F%2Ftracker.openbittorrent.com%3A80&amp;tr=udp%3A%2F%2Fopen.demonii.com%3A1337&amp;tr=udp%3A%2F%2Ftracker.coppersurfer.tk%3A6969&amp;tr=udp%3A%2F%2Fexodus.desync.com%3A6969","seeders":1,"leechers":0,"uploader":"canc232","files":1,"time":1393944061,"description":"The Blacklist S01E15 HDTV x264 AAC E-Subs [GWC]\n\n\nStoryline :\nFormer government agent Raymond &quot;Red&quot; Reddington has eluded capture for decades. But he suddenly surrenders to the FBI with an offer to help catch a terrorist under the condition that he speaks only to Elizabeth &quot;Liz&quot; Keen, a young FBI profiler who's just barely out of Quantico\n\n\nSCREENS : &lt;a href=&quot;\nhttp://i.imgur.com/I2S9gop.jpg&quot; rel=&quot;nofollow&quot; target=&quot;_NEW&quot;&gt;\nhttp://i.imgur.com/I2S9gop.jpg&lt;/a&gt; &lt;a href=&quot;\nhttp://i.imgur.com/nuInBfN.jpg&quot; rel=&quot;nofollow&quot; target=&quot;_NEW&quot;&gt;\nhttp://i.imgur.com/nuInBfN.jpg&lt;/a&gt; &lt;a href=&quot;\nhttp://i.imgur.com/0vibJkT.jpg&quot; rel=&quot;nofollow&quot; target=&quot;_NEW&quot;&gt;\nhttp://i.imgur.com/0vibJkT.jpg&lt;/a&gt;\n\n\nMEDIA INFO :\nGeneral  \nFormat : MPEG-4 \nFormat profile : Base Media \nFile size : 116 MiB \nDuration : 41mn 41s \nOverall bit rate mode : Variable \nOverall bit rate : 389 Kbps \n\nVideo \nFormat : AVC \nFormat profile : &lt;a class=&quot;__cf_email__&quot; href=&quot;/cdn-cgi/l/email-protection&quot; data-cfemail=&quot;6921000e0129255a4759&quot;&gt;[email&amp;#160;protected]&lt;/a&gt;&lt;script cf-hash='f9e31' type=&quot;text/javascript&quot;&gt;\n/* &lt;![CDATA[ */!function(){try{var t=&quot;currentScript&quot;in document?document.currentScript:function(){for(var t=document.getElementsByTagName(&quot;script&quot;),e=t.length;e--;)if(t[e].getAttribute(&quot;cf-hash&quot;))return t[e]}();if(t&amp;&amp;t.previousSibling){var e,r,n,i,c=t.previousSibling,a=c.getAttribute(&quot;data-cfemail&quot;);if(a){for(e=&quot;&quot;,r=parseInt(a.substr(0,2),16),n=2;a.length-n;n+=2)i=parseInt(a.substr(n,2),16)^r,e+=String.fromCharCode(i);e=document.createTextNode(e),c.parentNode.replaceChild(e,c)}}}catch(u){}}();/* ]]&gt; */&lt;/script&gt; \nFormat settings, CABAC : Yes \nFormat settings, ReFrames : 4 frames \nDuration : 41mn 39s \nBit rate : 326 Kbps \nMaximum bit rate : 2 297 Kbps \nWidth : 720 pixels \nHeight : 404 pixels \nDisplay aspect ratio : 16:9 \nFrame rate : 23.976 fps \nStream size : 97.2 MiB (84%) \nTitle : The Blacklist S01E15 HDTV x264 AAC E-Subs [GWC] \nWriting library : x264 core\n\nAudio \nFormat : AAC \nFormat profile : HE-AAC / LC \nDuration : 41mn 39s \nBit rate mode : Variable \nChannel(s) : 2 channels \nSampling rate : 48.0 KHz / 24.0 KHz \nStream size : 17.9 MiB (15%) \nLanguage : English \n\nText \nFormat : Timed Text \nDuration : 41mn 41s \nBit rate mode : Variable \nStream size : 26.9 KiB (0%) \nTitle : English Subtitle by n17t01 \nLanguage : English","torrent":{"xt":"urn:btih:657bc925c2ba517557f586d75f2f46a45ee3444f","amp;dn":"The+Blacklist+S01E15+HDTV+x264+AAC+E-Subs+%5BGWC%5D.mp4","amp;tr":["udp%3A%2F%2Ftracker.openbittorrent.com%3A80","udp%3A%2F%2Fopen.demonii.com%3A1337","udp%3A%2F%2Ftracker.coppersurfer.tk%3A6969","udp%3A%2F%2Fexodus.desync.com%3A6969"],"infoHash":"657bc925c2ba517557f586d75f2f46a45ee3444f","infoHashBuffer":{"type":"Buffer","data":[101,123,201,37,194,186,81,117,87,245,134,215,95,47,70,164,94,227,68,79]},"announce":[],"urlList":[]}}